USFL
nRows=134
nColumns=2
inDegrees=yes
endheader
time	soleus_r	
3.37478	 32.875967	
3.43728	 32.303772	
3.49978	 32.120260	
3.56227	 32.003574	
3.62477	 32.728288	
3.68726	 32.552740	
3.74976	 31.697163	
3.81226	 32.052813	
3.87475	 32.180689	
3.93725	 31.980177	
3.99974	 32.283584	
4.06224	 32.348839	
4.12474	 32.572752	
4.18723	 31.741828	
4.24973	 29.170644	
4.31222	 27.427236	
4.37472	 26.909064	
4.43722	 27.030364	
4.49971	 24.249094	
4.56221	 25.133089	
4.6247	 24.973147	
4.6872	 26.696318	
4.7497	 26.867825	
4.81219	 24.220423	
4.87469	 26.364237	
4.93718	 22.112454	
4.99968	 24.647353	
5.06218	 23.068969	
5.12467	 24.830848	
5.18717	 22.342343	
5.24966	 25.649598	
5.31216	 20.314431	
5.37466	 19.240373	
5.43715	 16.047730	
5.49965	 16.617515	
5.56214	 17.516030	
5.62464	 19.053069	
5.68714	 19.348019	
5.74963	 21.432851	
5.81213	 20.326493	
5.87462	 20.495099	
5.93712	 19.377502	
5.99962	 19.678141	
6.06211	 19.661052	
6.12461	 19.625379	
6.1871	 19.375742	
6.2496	 19.424883	
6.3121	 19.185693	
6.37459	 21.419109	
6.43709	 21.240466	
6.49958	 22.135170	
6.56208	 20.042981	
6.62458	 20.978620	
6.68707	 20.738098	
6.74957	 20.056560	
6.81206	 25.161805	
6.87456	 25.942665	
6.93706	 26.137152	
6.99955	 22.006705	
7.06205	 22.006705	
7.12454	 16.271636	
7.18704	 17.018556	
7.24954	 17.018556	
7.31203	 22.202512	
7.37453	 15.890604	
7.43702	 16.754162	
7.49952	 16.465436	
7.56202	 16.948215	
7.62451	 16.991244	
7.68701	 16.308533	
7.7495	 16.924024	
7.812	 16.924024	
7.8745	 16.847940	
7.93699	 24.250737	
7.99949	 24.250737	
8.06198	 21.028762	
8.12448	 17.037057	
8.18698	 16.618567	
8.24947	 23.311412	
8.31197	 24.540925	
8.37446	 24.573876	
8.43696	 23.171444	
8.49946	 19.552086	
8.56195	 19.552086	
8.62445	 21.047636	
8.68694	 21.047636	
8.74944	 21.047636	
8.81194	 20.576046	
8.87443	 20.807313	
8.93693	 20.892832	
8.99942	 18.747747	
9.06192	 23.166742	
9.12442	 21.748545	
9.18691	 23.174414	
9.24941	 22.467883	
9.3119	 22.467883	
9.3744	 21.780770	
9.4369	 20.634547	
9.49939	 20.634547	
9.56189	 20.180175	
9.62438	 17.316203	
9.68688	 17.316203	
9.74938	 17.316203	
9.81187	 16.572831	
9.87437	 17.429750	
9.93686	 17.362184	
9.99936	 24.361532	
10.0619	 23.706910	
10.1244	 20.094255	
10.1868	 18.580476	
10.2493	 18.982015	
10.3118	 19.478060	
10.3743	 14.270117	
10.4368	 14.204205	
10.4993	 12.700572	
10.5618	 16.844485	
10.6243	 16.844485	
10.6868	 16.844485	
10.7493	 16.844485	
10.8118	 16.844485	
10.8743	 16.844485	
10.9368	 16.844485	
10.9993	 16.844485	
11.0618	 16.844485	
11.1243	 16.844485	
11.1868	 16.844485	
11.2493	 16.844485	
11.3118	 16.844485	
11.3743	 16.844485	
11.4368	 16.844485	
11.4993	 16.844485	
11.5618	 16.844485	
11.6243	 16.844485	
11.6868	 16.844485	
